HIERARCHY
ROOT SpineBase
{
  OFFSET 0.000000 0.000000 0.000000
  CHANNELS 6 Xposition Yposition Zposition Zrotation Xrotation Yrotation
  JOINT SpineMid
  {
    OFFSET 0.000000 34.510370 -0.000000
    CHANNELS 3 Zrotation Xrotation Yrotation
    JOINT SpineShoulder
    {
      OFFSET -0.447065 25.658318 -0.510615
      CHANNELS 3 Zrotation Xrotation Yrotation
      JOINT Neck
      {
        OFFSET -0.290720 8.398995 -0.462149
        CHANNELS 3 Zrotation Xrotation Yrotation
        JOINT Head
        {
          OFFSET -6.167948 11.549165 2.152728
          CHANNELS 3 Zrotation Xrotation Yrotation
          End Site
          {
            OFFSET 0 0 0
          }
        }
      }
      JOINT ShoulderLeft
      {
        OFFSET -6.381521 -9.346314 -6.503697
        CHANNELS 3 Zrotation Xrotation Yrotation
        JOINT ElbowLeft
        {
          OFFSET -15.659846 -17.872116 17.874304
          CHANNELS 3 Zrotation Xrotation Yrotation
          JOINT WristLeft
          {
            OFFSET -4.279984 4.096465 -14.927872
            CHANNELS 3 Zrotation Xrotation Yrotation
            JOINT HandLeft
            {
              OFFSET 0.008449 -1.562195 -1.423663
              CHANNELS 3 Zrotation Xrotation Yrotation
              JOINT HandTipLeft
              {
                OFFSET 2.739703 -1.522710 -3.639208
                CHANNELS 3 Zrotation Xrotation Yrotation
                End Site
                {
                  OFFSET 0 0 0
                }
              }
              JOINT ThumbLeft
              {
                OFFSET 5.508207 -0.708329 -4.138127
                CHANNELS 3 Zrotation Xrotation Yrotation
                End Site
                {
                  OFFSET 0 0 0
                }
              }
            }
          }
        }
      }
      JOINT ShoulderRight
      {
        OFFSET 2.752296 -5.919137 -12.776549
        CHANNELS 3 Zrotation Xrotation Yrotation
        JOINT ElbowRight
        {
          OFFSET -2.163746 -22.357866 -7.592532
          CHANNELS 3 Zrotation Xrotation Yrotation
          JOINT WristRight
          {
            OFFSET -20.194197 1.470242 10.763016
            CHANNELS 3 Zrotation Xrotation Yrotation
            JOINT HandRight
            {
              OFFSET -5.640029 1.804207 2.728001
              CHANNELS 3 Zrotation Xrotation Yrotation
              JOINT HandTipRight
              {
                OFFSET -7.394872 1.264833 2.153477
                CHANNELS 3 Zrotation Xrotation Yrotation
                End Site
                {
                  OFFSET 0 0 0
                }
              }
              JOINT ThumbRight
              {
                OFFSET 1.723717 3.073768 -0.795550
                CHANNELS 3 Zrotation Xrotation Yrotation
                End Site
                {
                  OFFSET 0 0 0
                }
              }
            }
          }
        }
      }
    }
  }
  JOINT HipLeft
  {
    OFFSET -5.198387 -0.763272 0.266233
    CHANNELS 3 Zrotation Xrotation Yrotation
    JOINT KneeLeft
    {
      OFFSET 12.545273 -33.703327 17.960453
      CHANNELS 3 Zrotation Xrotation Yrotation
      JOINT AnkleLeft
      {
        OFFSET 2.867155 -40.128775 1.724892
        CHANNELS 3 Zrotation Xrotation Yrotation
        JOINT FootLeft
        {
          OFFSET -1.850370 -5.117799 2.441220
          CHANNELS 3 Zrotation Xrotation Yrotation
          End Site
          {
            OFFSET 0 0 0
          }
        }
      }
    }
  }
  JOINT HipRight
  {
    OFFSET 4.994969 1.132987 -7.302027
    CHANNELS 3 Zrotation Xrotation Yrotation
    JOINT KneeRight
    {
      OFFSET 4.068780 -42.165809 2.320154
      CHANNELS 3 Zrotation Xrotation Yrotation
      JOINT AnkleRight
      {
        OFFSET 8.866109 -31.948532 2.326103
        CHANNELS 3 Zrotation Xrotation Yrotation
        JOINT FootRight
        {
          OFFSET -5.338520 -4.178709 -10.290453
          CHANNELS 3 Zrotation Xrotation Yrotation
          End Site
          {
            OFFSET 0 0 0
          }
        }
      }
    }
  }
}
MOTION
Frames: 13
Frame Time: 0.033333
1.055340 81.962479 348.208210 -0.000000 -0.000000 36.592776 0.000000 0.000000 -36.592776 -0.000000 0.000000 0.000000 -0.000000 0.000000 0.000000 0.000000 0.000000 0.000000 -0.000000 0.000000 0.000000 -0.000000 0.000000 0.000000 -0.000000 0.000000 0.000000 -0.000000 0.000000 0.000000 0.000000 0.000000 0.000000 0.000000 0.000000 0.000000 -0.000000 0.000000 0.000000 -0.000000 0.000000 0.000000 -0.000000 0.000000 0.000000 -0.000000 0.000000 0.000000 0.000000 0.000000 0.000000 0.000000 0.000000 0.000000 0.000000 0.000000 -36.592776 -0.000000 0.000000 0.000000 -0.000000 0.000000 0.000000 0.000000 0.000000 0.000000 0.000000 0.000000 -36.592776 -0.000000 0.000000 0.000000 -0.000000 0.000000 0.000000 0.000000 0.000000 0.000000
0.961066 81.963460 348.171177 0.010677 0.037448 37.106719 -0.031107 -0.023424 -37.106729 -0.000000 0.000000 0.000000 -0.927394 -0.256259 0.034097 0.000000 0.000000 0.000000 -0.000000 0.000000 0.000000 -0.110419 1.744087 1.506674 -20.065740 40.375118 18.533760 10.273609 -37.836053 4.949884 0.000000 0.000000 0.000000 0.000000 0.000000 0.000000 -0.000000 0.000000 0.000000 0.488042 0.332979 0.925535 -3.192391 -0.802946 1.694084 -0.078354 -0.661618 -5.367419 0.000000 0.000000 0.000000 0.000000 0.000000 0.000000 -0.031107 -0.023424 -37.106729 -0.000000 0.000000 0.000000 2.197125 -3.428144 2.336285 0.000000 0.000000 0.000000 -0.031107 -0.023424 -37.106729 -0.000000 0.000000 0.000000 4.903283 -9.739238 1.098911 0.000000 0.000000 0.000000
0.875826 81.954144 348.145376 0.029100 0.064638 37.647469 -0.062522 -0.033405 -37.647504 -0.000000 0.000000 0.000000 -1.583540 -0.382338 0.086401 0.000000 0.000000 0.000000 -0.000000 0.000000 0.000000 -0.211044 3.394171 3.127446 -30.299089 49.436276 27.922598 9.679712 -40.886648 20.649895 0.000000 0.000000 0.000000 0.000000 0.000000 0.000000 -0.000000 0.000000 0.000000 0.820822 0.562333 1.508183 -5.639648 -1.566205 2.616314 -0.956998 -1.023852 -9.463803 0.000000 0.000000 0.000000 0.000000 0.000000 0.000000 -0.062522 -0.033405 -37.647504 -0.000000 0.000000 0.000000 2.631684 -6.349863 3.632550 0.000000 0.000000 0.000000 -0.062522 -0.033405 -37.647504 -0.000000 0.000000 0.000000 10.885642 -20.431013 3.362989 0.000000 0.000000 0.000000
0.799620 81.934534 348.130807 0.055257 0.081550 38.214786 -0.093863 -0.029891 -38.214850 -0.000000 0.000000 0.000000 -1.967993 -0.378209 0.159946 0.000000 0.000000 0.000000 0.199689 -0.574690 0.701815 -0.414269 5.378519 4.040519 -34.226508 52.067012 31.078543 3.323881 -36.664317 35.898798 0.000000 0.000000 0.000000 0.000000 0.000000 0.000000 0.874105 -0.025605 -0.294410 0.133944 0.716187 2.064665 -7.531160 -2.294449 3.015646 -2.277699 -1.110035 -12.363663 0.000000 0.000000 0.000000 0.000000 0.000000 0.000000 0.492566 0.611109 -37.859741 -0.069621 -0.865980 -0.358610 1.628671 -9.225535 4.112170 0.000000 0.000000 0.000000 -1.020902 0.213481 -38.298662 1.839753 0.231098 0.104438 16.620308 -30.293655 6.777850 0.000000 0.000000 0.000000
0.732449 81.904628 348.127470 0.089124 0.088180 38.808414 -0.124714 -0.012858 -38.808496 -0.000000 0.000000 0.000000 -2.081330 -0.243938 0.255871 0.000000 0.000000 0.000000 0.281348 -0.798646 0.978403 -0.460166 6.635112 5.232320 -35.703556 52.806688 31.810321 -3.052096 -33.791032 46.132089 0.000000 0.000000 0.000000 0.000000 0.000000 0.000000 0.998384 -0.141245 -0.324559 0.066004 0.859605 2.050999 -8.991890 -3.005688 3.033000 -3.754449 -0.985322 -14.054225 0.000000 0.000000 0.000000 0.000000 0.000000 0.000000 0.622320 0.868703 -38.365975 -0.038610 -1.154849 -0.448490 -0.849856 -12.343661 3.776594 0.000000 0.000000 0.000000 -1.215449 0.234695 -38.909103 2.145024 0.313268 0.123079 23.044975 -38.066455 10.855998 0.000000 0.000000 0.000000
0.674312 81.864426 348.135364 0.130667 0.084536 39.428079 -0.154620 0.017691 -39.428151 -0.814173 -0.203493 -0.053297 -1.110924 0.222856 0.430651 0.000000 0.000000 0.000000 1.185865 -0.834184 1.325654 -0.430743 7.461693 6.141132 -36.443728 52.555783 31.835420 -6.819392 -32.929116 51.329920 0.000000 0.000000 0.000000 0.000000 0.000000 0.000000 1.851559 -0.104580 -0.273375 -0.045192 0.958557 1.705061 -10.104963 -3.720482 2.739727 -5.163382 -0.731272 -14.495814 0.000000 0.000000 0.000000 0.000000 0.000000 0.000000 0.737046 1.153634 -38.913787 0.019645 -1.443932 -0.523231 -5.166531 -15.911156 2.401718 0.000000 0.000000 0.000000 -1.333065 0.225742 -39.539789 2.298326 0.394473 0.134543 28.221643 -43.056837 14.391633 0.000000 0.000000 0.000000
0.617017 81.870073 348.150831 0.173915 0.050512 39.942428 -0.165768 0.072930 -39.942399 -0.895877 -0.253164 -0.060047 -1.160871 0.578764 0.634034 0.000000 0.000000 0.000000 1.708871 -0.937323 1.909872 -0.756404 8.811153 7.542286 -39.265649 45.041578 32.362172 1.435565 -29.714844 48.783277 0.000000 0.000000 0.000000 0.000000 0.000000 0.000000 2.016224 -0.242143 -0.277108 -0.047500 1.165392 1.414415 -11.097857 -4.457273 1.992693 -8.076828 -0.717038 -16.151777 0.000000 0.000000 0.000000 0.000000 0.000000 0.000000 0.789762 1.792752 -39.431608 0.354238 -1.935221 -0.520367 -14.898743 -22.498151 -1.651787 0.000000 0.000000 0.000000 -1.320793 0.283739 -40.051004 2.363595 0.370299 0.134168 28.331465 -43.339028 13.725195 0.000000 0.000000 0.000000
0.570431 81.809537 348.139053 0.224430 0.019797 40.368668 -0.183814 0.130281 -40.368498 -0.955131 -0.276968 -0.064462 -0.573640 1.065768 0.788328 0.000000 0.000000 0.000000 1.764361 -1.145457 2.109192 -1.165281 8.184144 3.983752 -35.176539 40.992967 30.125797 6.937810 -39.270003 24.425539 0.000000 0.000000 0.000000 0.000000 0.000000 0.000000 2.287470 -0.550124 -0.310332 -0.129079 1.557126 1.305407 -11.729521 -5.100073 0.557658 -7.049145 -0.293286 -9.877834 0.000000 0.000000 0.000000 0.000000 0.000000 0.000000 0.865024 2.172651 -39.830117 1.490105 -3.358196 -0.537770 -27.936130 -31.589930 -6.913576 0.000000 0.000000 0.000000 -1.008435 0.130540 -40.452744 1.885996 0.247034 0.085813 23.300875 -38.470845 9.656839 0.000000 0.000000 0.000000
0.523004 81.724137 348.184843 0.273866 -0.017482 41.148629 -0.194719 0.193371 -41.148259 -1.001210 -0.329239 -0.069375 0.871684 1.833217 0.890980 0.000000 0.000000 0.000000 1.556646 -1.453306 2.162553 0.090051 6.351176 5.162617 -34.145401 39.887147 28.009788 5.686121 -33.145981 30.640482 0.000000 0.000000 0.000000 0.000000 0.000000 0.000000 2.308117 -0.970120 -0.248121 -0.269923 1.842269 0.120207 -12.104863 -6.104545 -1.636403 -7.656250 -0.044453 -4.794662 0.000000 0.000000 0.000000 0.000000 0.000000 0.000000 0.994045 2.286521 -40.545571 1.923799 -3.958942 -0.587340 -39.397317 -23.771670 -13.952905 0.000000 0.000000 0.000000 -0.194719 0.193371 -41.148259 1.254811 -0.244498 0.026107 23.144812 -38.367881 9.219641 0.000000 0.000000 0.000000
0.519213 81.582815 348.244460 0.358054 -0.019566 42.580810 -0.250406 0.256675 -42.580188 -1.011354 -0.311510 -0.069193 2.895521 2.712736 0.931967 0.000000 0.000000 0.000000 0.977357 -2.004166 2.017038 1.696997 5.762996 7.851082 -37.669498 31.472973 28.317267 3.443346 -29.210392 36.070522 0.000000 0.000000 0.000000 0.000000 0.000000 0.000000 1.632696 -1.312496 0.015685 -1.480596 0.946613 -3.446775 -11.395836 -6.773619 -0.942967 -6.322981 0.834724 -0.397815 0.000000 0.000000 0.000000 0.000000 0.000000 0.000000 1.149373 2.234336 -41.871291 2.153297 -4.380389 -0.680240 -46.391900 -17.794907 -17.527138 0.000000 0.000000 0.000000 -1.305685 -0.078361 -42.701537 1.807173 0.823083 0.151063 23.201845 -38.543072 9.036237 0.000000 0.000000 0.000000
0.550647 81.454524 348.354198 0.413582 -0.045215 43.645763 -0.268072 0.318170 -43.644856 -1.080990 -0.312860 -0.073276 4.451967 2.491647 0.508210 0.000000 0.000000 0.000000 0.127045 -2.782807 1.744917 3.954161 7.106441 14.012886 -45.735391 30.739530 31.482077 12.788739 -15.206403 52.195187 0.000000 0.000000 0.000000 0.000000 0.000000 0.000000 0.459879 -1.624838 0.461504 -3.030079 -0.241409 -8.583243 -9.944334 -7.489857 -0.151685 -4.471265 2.166712 2.852195 0.000000 0.000000 0.000000 0.000000 0.000000 0.000000 1.273698 1.963340 -42.838433 2.178650 -4.509202 -0.771589 -53.107741 -9.697341 -20.444679 0.000000 0.000000 0.000000 -1.673347 -0.031009 -43.802018 2.058455 1.258590 0.226403 23.650520 -39.219776 9.137140 0.000000 0.000000 0.000000
0.559994 81.229768 348.549873 0.500989 -0.019159 44.367697 -0.344748 0.364016 -44.366518 -1.071886 -0.252027 -0.070077 7.422387 4.234099 0.729653 0.000000 0.000000 0.000000 -2.309551 -7.591469 3.053911 7.723682 7.738252 10.000902 -51.949723 35.128908 40.669892 21.640608 -17.934053 41.692316 0.000000 0.000000 0.000000 0.000000 0.000000 0.000000 -1.319378 -1.679532 1.038839 -5.641278 -2.014743 -14.754897 -5.968422 -6.689059 1.309618 -5.274193 2.261892 7.668423 0.000000 0.000000 0.000000 0.000000 0.000000 0.000000 1.148318 1.620460 -43.562092 2.146408 -4.310142 -0.769290 -56.750586 -1.061984 -21.502954 0.000000 0.000000 0.000000 -1.936959 0.035333 -44.541090 2.198726 1.579380 0.292554 23.688569 -39.449628 9.102370 0.000000 0.000000 0.000000
0.516085 80.933963 348.889356 0.562085 -0.014036 44.866164 -0.388487 0.406469 -44.864717 -1.079533 -0.219976 -0.069104 11.343406 7.406921 1.226658 0.000000 0.000000 0.000000 -2.623931 -7.813967 2.874779 8.404698 8.568963 12.103735 -52.819629 43.534129 41.505778 14.255295 -27.918738 41.922307 0.000000 0.000000 0.000000 0.000000 0.000000 0.000000 -3.181543 -1.427859 1.629396 -8.690267 -3.667332 -21.095141 -2.728378 -6.025709 2.169943 -2.095288 4.675775 11.839194 0.000000 0.000000 0.000000 0.000000 0.000000 0.000000 1.039093 1.288357 -44.065619 1.930516 -3.897217 -0.771062 -56.936183 7.785842 -21.147009 0.000000 0.000000 0.000000 -2.562304 0.808384 -45.062735 3.666148 1.581221 0.377884 22.584601 -38.995920 8.796160 0.000000 0.000000 0.000000
